<svg version="1.1" xmlns="http://www.w3.org/2000/svg" xmlns:xlink="http://www.w3.org/1999/xlink" width="901.83544921875" height="828"><defs/><g><text fill="#eeeeee" stroke="none" font-family="Arial" font-size="24px" font-style="normal" font-weight="normal" text-decoration="none" x="0" y="0"></text><text fill="#eeeeee" stroke="none" font-family="Arial" font-size="24px" font-style="normal" font-weight="normal" text-decoration="none" x="0" y="30"></text><text fill="#eeeeee" stroke="none" font-family="Arial" font-size="24px" font-style="normal" font-weight="normal" text-decoration="none" x="0" y="60"></text><text fill="#eeeeee" stroke="none" font-family="Arial" font-size="24px" font-style="normal" font-weight="normal" text-decoration="none" x="0" y="90"></text><text fill="#eeeeee" stroke="none" font-family="Arial" font-size="24px" font-style="normal" font-weight="normal" text-decoration="none" x="0" y="120"></text><text fill="#eeeeee" stroke="none" font-family="Arial" font-size="24px" font-style="normal" font-weight="normal" text-decoration="none" x="0" y="150"></text><text fill="#eeeeee" stroke="none" font-family="Arial" font-size="24px" font-style="normal" font-weight="normal" text-decoration="none" x="0" y="180"></text><text fill="#eeeeee" stroke="none" font-family="Arial" font-size="24px" font-style="normal" font-weight="normal" text-decoration="none" x="0" y="210"></text><text fill="#eeeeee" stroke="none" font-family="Arial" font-size="24px" font-style="normal" font-weight="normal" text-decoration="none" x="0" y="240"></text><text fill="#eeeeee" stroke="none" font-family="Arial" font-size="24px" font-style="normal" font-weight="normal" text-decoration="none" x="0" y="270"></text><text fill="#eeeeee" stroke="none" font-family="Arial" font-size="24px" font-style="normal" font-weight="normal" text-decoration="none" x="0" y="300"></text><text fill="#eeeeee" stroke="none" font-family="Arial" font-size="24px" font-style="normal" font-weight="normal" text-decoration="none" x="0" y="330"></text><text fill="#eeeeee" stroke="none" font-family="Arial" font-size="24px" font-style="normal" font-weight="normal" text-decoration="none" x="0" y="360"></text><text fill="#eeeeee" stroke="none" font-family="Arial" font-size="24px" font-style="normal" font-weight="normal" text-decoration="none" x="0" y="390"></text><text fill="#eeeeee" stroke="none" font-family="Arial" font-size="24px" font-style="normal" font-weight="normal" text-decoration="none" x="0" y="420"></text><text fill="#eeeeee" stroke="none" font-family="Arial" font-size="24px" font-style="normal" font-weight="normal" text-decoration="none" x="0" y="450"></text><text fill="#eeeeee" stroke="none" font-family="Arial" font-size="24px" font-style="normal" font-weight="normal" text-decoration="none" x="0" y="480"></text><text fill="#eeeeee" stroke="none" font-family="Arial" font-size="24px" font-style="normal" font-weight="normal" text-decoration="none" x="0" y="510"></text><text fill="#eeeeee" stroke="none" font-family="Arial" font-size="24px" font-style="normal" font-weight="normal" text-decoration="none" x="0" y="540"></text><text fill="#eeeeee" stroke="none" font-family="Arial" font-size="24px" font-style="normal" font-weight="normal" text-decoration="none" x="0" y="570"></text><text fill="#eeeeee" stroke="none" font-family="Arial" font-size="24px" font-style="normal" font-weight="normal" text-decoration="none" x="0" y="600"></text><text fill="#eeeeee" stroke="none" font-family="Arial" font-size="24px" font-style="normal" font-weight="normal" text-decoration="none" x="0" y="630"></text><text fill="#eeeeee" stroke="none" font-family="Arial" font-size="24px" font-style="normal" font-weight="normal" text-decoration="none" x="0" y="660"></text><text fill="#eeeeee" stroke="none" font-family="Arial" font-size="24px" font-style="normal" font-weight="normal" text-decoration="none" x="0" y="690"></text><text fill="#eeeeee" stroke="none" font-family="Arial" font-size="24px" font-style="normal" font-weight="normal" text-decoration="none" x="0" y="720"></text><text fill="#eeeeee" stroke="none" font-family="Arial" font-size="24px" font-style="normal" font-weight="normal" text-decoration="none" x="0" y="750"></text><text fill="#eeeeee" stroke="none" font-family="Arial" font-size="24px" font-style="normal" font-weight="normal" text-decoration="none" x="0" y="780"></text><text fill="#eeeeee" stroke="none" font-family="Arial" font-size="24px" font-style="normal" font-weight="normal" text-decoration="none" x="0" y="810"></text><text fill="#eeeeee" stroke="none" font-family="Arial" font-size="24px" font-style="normal" font-weight="normal" text-decoration="none" x="200" y="0"></text><text fill="#eeeeee" stroke="none" font-family="Arial" font-size="24px" font-style="normal" font-weight="normal" text-decoration="none" x="200" y="30"></text><text fill="#eeeeee" stroke="none" font-family="Arial" font-size="24px" font-style="normal" font-weight="normal" text-decoration="none" x="200" y="60"></text><text fill="#eeeeee" stroke="none" font-family="Arial" font-size="24px" font-style="normal" font-weight="normal" text-decoration="none" x="200" y="90"></text><text fill="#eeeeee" stroke="none" font-family="Arial" font-size="24px" font-style="normal" font-weight="normal" text-decoration="none" x="200" y="120"></text><text fill="#eeeeee" stroke="none" font-family="Arial" font-size="24px" font-style="normal" font-weight="normal" text-decoration="none" x="200" y="150"></text><text fill="#eeeeee" stroke="none" font-family="Arial" font-size="24px" font-style="normal" font-weight="normal" text-decoration="none" x="200" y="180"></text><text fill="#eeeeee" stroke="none" font-family="Arial" font-size="24px" font-style="normal" font-weight="normal" text-decoration="none" x="200" y="210"></text><text fill="#eeeeee" stroke="none" font-family="Arial" font-size="24px" font-style="normal" font-weight="normal" text-decoration="none" x="200" y="240"></text><text fill="#eeeeee" stroke="none" font-family="Arial" font-size="24px" font-style="normal" font-weight="normal" text-decoration="none" x="200" y="270"></text><text fill="#eeeeee" stroke="none" font-family="Arial" font-size="24px" font-style="normal" font-weight="normal" text-decoration="none" x="200" y="300"></text><text fill="#eeeeee" stroke="none" font-family="Arial" font-size="24px" font-style="normal" font-weight="normal" text-decoration="none" x="200" y="330"></text><text fill="#eeeeee" stroke="none" font-family="Arial" font-size="24px" font-style="normal" font-weight="normal" text-decoration="none" x="200" y="360"></text><text fill="#eeeeee" stroke="none" font-family="Arial" font-size="24px" font-style="normal" font-weight="normal" text-decoration="none" x="200" y="390"></text><text fill="#eeeeee" stroke="none" font-family="Arial" font-size="24px" font-style="normal" font-weight="normal" text-decoration="none" x="200" y="420"></text><text fill="#eeeeee" stroke="none" font-family="Arial" font-size="24px" font-style="normal" font-weight="normal" text-decoration="none" x="200" y="450"></text><text fill="#eeeeee" stroke="none" font-family="Arial" font-size="24px" font-style="normal" font-weight="normal" text-decoration="none" x="200" y="480"></text><text fill="#eeeeee" stroke="none" font-family="Arial" font-size="24px" font-style="normal" font-weight="normal" text-decoration="none" x="200" y="510"></text><text fill="#eeeeee" stroke="none" font-family="Arial" font-size="24px" font-style="normal" font-weight="normal" text-decoration="none" x="200" y="540"></text><text fill="#eeeeee" stroke="none" font-family="Arial" font-size="24px" font-style="normal" font-weight="normal" text-decoration="none" x="200" y="570"></text><text fill="#eeeeee" stroke="none" font-family="Arial" font-size="24px" font-style="normal" font-weight="normal" text-decoration="none" x="200" y="600"></text><text fill="#eeeeee" stroke="none" font-family="Arial" font-size="24px" font-style="normal" font-weight="normal" text-decoration="none" x="200" y="630"></text><text fill="#eeeeee" stroke="none" font-family="Arial" font-size="24px" font-style="normal" font-weight="normal" text-decoration="none" x="200" y="660"></text><text fill="#eeeeee" stroke="none" font-family="Arial" font-size="24px" font-style="normal" font-weight="normal" text-decoration="none" x="200" y="690"></text><text fill="#eeeeee" stroke="none" font-family="Arial" font-size="24px" font-style="normal" font-weight="normal" text-decoration="none" x="200" y="720"></text><text fill="#eeeeee" stroke="none" font-family="Arial" font-size="24px" font-style="normal" font-weight="normal" text-decoration="none" x="200" y="750"></text><text fill="#eeeeee" stroke="none" font-family="Arial" font-size="24px" font-style="normal" font-weight="normal" text-decoration="none" x="200" y="780"></text><text fill="#eeeeee" stroke="none" font-family="Arial" font-size="24px" font-style="normal" font-weight="normal" text-decoration="none" x="200" y="810"></text><text fill="#eeeeee" stroke="none" font-family="Arial" font-size="24px" font-style="normal" font-weight="normal" text-decoration="none" x="400" y="0"></text><text fill="#eeeeee" stroke="none" font-family="Arial" font-size="24px" font-style="normal" font-weight="normal" text-decoration="none" x="400" y="30"></text><text fill="#eeeeee" stroke="none" font-family="Arial" font-size="24px" font-style="normal" font-weight="normal" text-decoration="none" x="400" y="60"></text><text fill="#eeeeee" stroke="none" font-family="Arial" font-size="24px" font-style="normal" font-weight="normal" text-decoration="none" x="400" y="90"></text><text fill="#eeeeee" stroke="none" font-family="Arial" font-size="24px" font-style="normal" font-weight="normal" text-decoration="none" x="400" y="120"></text><text fill="#eeeeee" stroke="none" font-family="Arial" font-size="24px" font-style="normal" font-weight="normal" text-decoration="none" x="400" y="150"></text><text fill="#eeeeee" stroke="none" font-family="Arial" font-size="24px" font-style="normal" font-weight="normal" text-decoration="none" x="400" y="180"></text><text fill="#eeeeee" stroke="none" font-family="Arial" font-size="24px" font-style="normal" font-weight="normal" text-decoration="none" x="400" y="210"></text><text fill="#eeeeee" stroke="none" font-family="Arial" font-size="24px" font-style="normal" font-weight="normal" text-decoration="none" x="400" y="240"></text><text fill="#eeeeee" stroke="none" font-family="Arial" font-size="24px" font-style="normal" font-weight="normal" text-decoration="none" x="400" y="270"></text><text fill="#eeeeee" stroke="none" font-family="Arial" font-size="24px" font-style="normal" font-weight="normal" text-decoration="none" x="400" y="300"></text><text fill="#eeeeee" stroke="none" font-family="Arial" font-size="24px" font-style="normal" font-weight="normal" text-decoration="none" x="400" y="330"></text><text fill="#eeeeee" stroke="none" font-family="Arial" font-size="24px" font-style="normal" font-weight="normal" text-decoration="none" x="400" y="360"></text><text fill="#eeeeee" stroke="none" font-family="Arial" font-size="24px" font-style="normal" font-weight="normal" text-decoration="none" x="400" y="390"></text><text fill="#eeeeee" stroke="none" font-family="Arial" font-size="24px" font-style="normal" font-weight="normal" text-decoration="none" x="400" y="420"></text><text fill="#eeeeee" stroke="none" font-family="Arial" font-size="24px" font-style="normal" font-weight="normal" text-decoration="none" x="400" y="450"></text><text fill="#eeeeee" stroke="none" font-family="Arial" font-size="24px" font-style="normal" font-weight="normal" text-decoration="none" x="400" y="480"></text><text fill="#eeeeee" stroke="none" font-family="Arial" font-size="24px" font-style="normal" font-weight="normal" text-decoration="none" x="400" y="510"></text><text fill="#eeeeee" stroke="none" font-family="Arial" font-size="24px" font-style="normal" font-weight="normal" text-decoration="none" x="400" y="540"></text><text fill="#eeeeee" stroke="none" font-family="Arial" font-size="24px" font-style="normal" font-weight="normal" text-decoration="none" x="400" y="570"></text><text fill="#eeeeee" stroke="none" font-family="Arial" font-size="24px" font-style="normal" font-weight="normal" text-decoration="none" x="400" y="600"></text><text fill="#eeeeee" stroke="none" font-family="Arial" font-size="24px" font-style="normal" font-weight="normal" text-decoration="none" x="400" y="630"></text><text fill="#eeeeee" stroke="none" font-family="Arial" font-size="24px" font-style="normal" font-weight="normal" text-decoration="none" x="400" y="660"></text><text fill="#eeeeee" stroke="none" font-family="Arial" font-size="24px" font-style="normal" font-weight="normal" text-decoration="none" x="400" y="690"></text><text fill="#eeeeee" stroke="none" font-family="Arial" font-size="24px" font-style="normal" font-weight="normal" text-decoration="none" x="400" y="720"></text><text fill="#eeeeee" stroke="none" font-family="Arial" font-size="24px" font-style="normal" font-weight="normal" text-decoration="none" x="400" y="750"></text><text fill="#eeeeee" stroke="none" font-family="Arial" font-size="24px" font-style="normal" font-weight="normal" text-decoration="none" x="400" y="780"></text><text fill="#eeeeee" stroke="none" font-family="Arial" font-size="24px" font-style="normal" font-weight="normal" text-decoration="none" x="400" y="810"></text><text fill="#eeeeee" stroke="none" font-family="Arial" font-size="24px" font-style="normal" font-weight="normal" text-decoration="none" x="600" y="0"></text><text fill="#eeeeee" stroke="none" font-family="Arial" font-size="24px" font-style="normal" font-weight="normal" text-decoration="none" x="600" y="30"></text><text fill="#eeeeee" stroke="none" font-family="Arial" font-size="24px" font-style="normal" font-weight="normal" text-decoration="none" x="600" y="60"></text><text fill="#eeeeee" stroke="none" font-family="Arial" font-size="24px" font-style="normal" font-weight="normal" text-decoration="none" x="600" y="90"></text><text fill="#eeeeee" stroke="none" font-family="Arial" font-size="24px" font-style="normal" font-weight="normal" text-decoration="none" x="600" y="120"></text><text fill="#eeeeee" stroke="none" font-family="Arial" font-size="24px" font-style="normal" font-weight="normal" text-decoration="none" x="600" y="150"></text><text fill="#eeeeee" stroke="none" font-family="Arial" font-size="24px" font-style="normal" font-weight="normal" text-decoration="none" x="600" y="180"></text><text fill="#eeeeee" stroke="none" font-family="Arial" font-size="24px" font-style="normal" font-weight="normal" text-decoration="none" x="600" y="210"></text><text fill="#eeeeee" stroke="none" font-family="Arial" font-size="24px" font-style="normal" font-weight="normal" text-decoration="none" x="600" y="240"></text><text fill="#eeeeee" stroke="none" font-family="Arial" font-size="24px" font-style="normal" font-weight="normal" text-decoration="none" x="600" y="270"></text><text fill="#eeeeee" stroke="none" font-family="Arial" font-size="24px" font-style="normal" font-weight="normal" text-decoration="none" x="600" y="300"></text><text fill="#eeeeee" stroke="none" font-family="Arial" font-size="24px" font-style="normal" font-weight="normal" text-decoration="none" x="600" y="330"></text><text fill="#eeeeee" stroke="none" font-family="Arial" font-size="24px" font-style="normal" font-weight="normal" text-decoration="none" x="600" y="360"></text><text fill="#eeeeee" stroke="none" font-family="Arial" font-size="24px" font-style="normal" font-weight="normal" text-decoration="none" x="600" y="390"></text><text fill="#eeeeee" stroke="none" font-family="Arial" font-size="24px" font-style="normal" font-weight="normal" text-decoration="none" x="600" y="420"></text><text fill="#eeeeee" stroke="none" font-family="Arial" font-size="24px" font-style="normal" font-weight="normal" text-decoration="none" x="600" y="450"></text><text fill="#eeeeee" stroke="none" font-family="Arial" font-size="24px" font-style="normal" font-weight="normal" text-decoration="none" x="600" y="480"></text><text fill="#eeeeee" stroke="none" font-family="Arial" font-size="24px" font-style="normal" font-weight="normal" text-decoration="none" x="600" y="510"></text><text fill="#eeeeee" stroke="none" font-family="Arial" font-size="24px" font-style="normal" font-weight="normal" text-decoration="none" x="600" y="540"></text><text fill="#eeeeee" stroke="none" font-family="Arial" font-size="24px" font-style="normal" font-weight="normal" text-decoration="none" x="600" y="570"></text><text fill="#eeeeee" stroke="none" font-family="Arial" font-size="24px" font-style="normal" font-weight="normal" text-decoration="none" x="600" y="600"></text><text fill="#eeeeee" stroke="none" font-family="Arial" font-size="24px" font-style="normal" font-weight="normal" text-decoration="none" x="600" y="630"></text><text fill="#eeeeee" stroke="none" font-family="Arial" font-size="24px" font-style="normal" font-weight="normal" text-decoration="none" x="600" y="660"></text><text fill="#eeeeee" stroke="none" font-family="Arial" font-size="24px" font-style="normal" font-weight="normal" text-decoration="none" x="600" y="690"></text><text fill="#eeeeee" stroke="none" font-family="Arial" font-size="24px" font-style="normal" font-weight="normal" text-decoration="none" x="600" y="720"></text><text fill="#eeeeee" stroke="none" font-family="Arial" font-size="24px" font-style="normal" font-weight="normal" text-decoration="none" x="600" y="750"></text><text fill="#eeeeee" stroke="none" font-family="Arial" font-size="24px" font-style="normal" font-weight="normal" text-decoration="none" x="600" y="780"></text><text fill="#eeeeee" stroke="none" font-family="Arial" font-size="24px" font-style="normal" font-weight="normal" text-decoration="none" x="600" y="810"></text><text fill="#eeeeee" stroke="none" font-family="Arial" font-size="24px" font-style="normal" font-weight="normal" text-decoration="none" x="800" y="0"></text><text fill="#eeeeee" stroke="none" font-family="Arial" font-size="24px" font-style="normal" font-weight="normal" text-decoration="none" x="800" y="30"></text><text fill="#eeeeee" stroke="none" font-family="Arial" font-size="24px" font-style="normal" font-weight="normal" text-decoration="none" x="800" y="60"></text><text fill="#eeeeee" stroke="none" font-family="Arial" font-size="24px" font-style="normal" font-weight="normal" text-decoration="none" x="800" y="90"></text><text fill="#eeeeee" stroke="none" font-family="Arial" font-size="24px" font-style="normal" font-weight="normal" text-decoration="none" x="800" y="120"></text><text fill="#eeeeee" stroke="none" font-family="Arial" font-size="24px" font-style="normal" font-weight="normal" text-decoration="none" x="800" y="150"></text><text fill="#eeeeee" stroke="none" font-family="Arial" font-size="24px" font-style="normal" font-weight="normal" text-decoration="none" x="800" y="180"></text><text fill="#eeeeee" stroke="none" font-family="Arial" font-size="24px" font-style="normal" font-weight="normal" text-decoration="none" x="800" y="210"></text><text fill="#eeeeee" stroke="none" font-family="Arial" font-size="24px" font-style="normal" font-weight="normal" text-decoration="none" x="800" y="240"></text><text fill="#eeeeee" stroke="none" font-family="Arial" font-size="24px" font-style="normal" font-weight="normal" text-decoration="none" x="800" y="270"></text><text fill="#eeeeee" stroke="none" font-family="Arial" font-size="24px" font-style="normal" font-weight="normal" text-decoration="none" x="800" y="300"></text><text fill="#eeeeee" stroke="none" font-family="Arial" font-size="24px" font-style="normal" font-weight="normal" text-decoration="none" x="800" y="330"></text><text fill="#eeeeee" stroke="none" font-family="Arial" font-size="24px" font-style="normal" font-weight="normal" text-decoration="none" x="800" y="360"></text><text fill="#eeeeee" stroke="none" font-family="Arial" font-size="24px" font-style="normal" font-weight="normal" text-decoration="none" x="800" y="390"></text><text fill="#eeeeee" stroke="none" font-family="Arial" font-size="24px" font-style="normal" font-weight="normal" text-decoration="none" x="800" y="420"></text><text fill="#eeeeee" stroke="none" font-family="Arial" font-size="24px" font-style="normal" font-weight="normal" text-decoration="none" x="800" y="450"></text><text fill="#eeeeee" stroke="none" font-family="Arial" font-size="24px" font-style="normal" font-weight="normal" text-decoration="none" x="800" y="480"></text><text fill="#eeeeee" stroke="none" font-family="Arial" font-size="24px" font-style="normal" font-weight="normal" text-decoration="none" x="800" y="510"></text><text fill="#eeeeee" stroke="none" font-family="Arial" font-size="24px" font-style="normal" font-weight="normal" text-decoration="none" x="800" y="540"></text><text fill="#eeeeee" stroke="none" font-family="Arial" font-size="24px" font-style="normal" font-weight="normal" text-decoration="none" x="800" y="570"></text><text fill="#eeeeee" stroke="none" font-family="Arial" font-size="24px" font-style="normal" font-weight="normal" text-decoration="none" x="800" y="600"></text><text fill="#eeeeee" stroke="none" font-family="Arial" font-size="24px" font-style="normal" font-weight="normal" text-decoration="none" x="800" y="630"></text><text fill="#eeeeee" stroke="none" font-family="Arial" font-size="24px" font-style="normal" font-weight="normal" text-decoration="none" x="800" y="660"></text><text fill="#eeeeee" stroke="none" font-family="Arial" font-size="24px" font-style="normal" font-weight="normal" text-decoration="none" x="800" y="690"></text><text fill="#eeeeee" stroke="none" font-family="Arial" font-size="24px" font-style="normal" font-weight="normal" text-decoration="none" x="800" y="720"></text><text fill="#eeeeee" stroke="none" font-family="Arial" font-size="24px" font-style="normal" font-weight="normal" text-decoration="none" x="800" y="750"></text><text fill="#eeeeee" stroke="none" font-family="Arial" font-size="24px" font-style="normal" font-weight="normal" text-decoration="none" x="800" y="780"></text><text fill="#eeeeee" stroke="none" font-family="Arial" font-size="24px" font-style="normal" font-weight="normal" text-decoration="none" x="800" y="810"></text><g transform="translate(10,-62) scale(1,1)"><rect fill="#C0C0C0" stroke="none" x="151" y="79" width="560" height="808" opacity="0.2"/></g><g transform="translate(10,-62) scale(1,1)"><rect fill="#ffffff" stroke="none" x="144" y="72" width="560" height="808"/></g><g transform="translate(10,-62) scale(1,1)"><path fill="none" stroke="#000000" d="M 144 72 L 704 72 L 704 880 L 144 880 L 144 72 Z Z" stroke-miterlimit="10"/></g><g transform="translate(10,-62) scale(1,1)"><g><path fill="none" stroke="none"/><text fill="#000000" stroke="none" font-family="Arial" font-size="13px" font-style="normal" font-weight="bold" text-decoration="none" x="373.786865234375" y="91.5">Inventory System</text></g></g><g transform="translate(10,-62) scale(1,1)"><path fill="#C0C0C0" stroke="none" d="M 327 384 C 327 374.6111584 374.9055264 367 434 367 C 493.0944736 367 541 374.6111584 541 384 C 541 393.3888416 493.0944736 401 434 401 C 374.9055264 401 327 393.3888416 327 384 Z" opacity="0.2"/></g><g transform="translate(10,-62) scale(1,1)"><path fill="#ffffff" stroke="none" d="M 320 377 C 320 367.6111584 367.9055264 360 427 360 C 486.0944736 360 534 367.6111584 534 377 C 534 386.3888416 486.0944736 394 427 394 C 367.9055264 394 320 386.3888416 320 377 Z"/></g><g transform="translate(10,-62) scale(1,1)"><path fill="none" stroke="#000000" d="M 320 377 C 320 367.6111584 367.9055264 360 427 360 C 486.0944736 360 534 367.6111584 534 377 C 534 386.3888416 486.0944736 394 427 394 C 367.9055264 394 320 386.3888416 320 377 Z" stroke-miterlimit="10"/></g><g transform="translate(10,-62) scale(1,1)"><g><path fill="none" stroke="none"/><text fill="#000000" stroke="none" font-family="Arial" font-size="13px" font-style="normal" font-weight="bold" text-decoration="none" x="385.451416015625" y="384">OrderSupplies</text></g></g><g transform="translate(10,-62) scale(1,1)"><path fill="#ffffff" stroke="none" d="M 53.725968039772724 429.76 C 53.725968039772724 422.712845952 59.33885139802727 417 66.2626953125 417 C 73.18653922697273 417 78.79942258522728 422.712845952 78.79942258522728 429.76 C 78.79942258522728 436.807154048 73.18653922697273 442.52 66.2626953125 442.52 C 59.33885139802727 442.52 53.725968039772724 436.807154048 53.725968039772724 429.76 Z"/></g><g transform="translate(10,-62) scale(1,1)"><path fill="none" stroke="#000000" d="M 53.725968039772724 429.76 C 53.725968039772724 422.712845952 59.33885139802727 417 66.2626953125 417 C 73.18653922697273 417 78.79942258522728 422.712845952 78.79942258522728 429.76 C 78.79942258522728 436.807154048 73.18653922697273 442.52 66.2626953125 442.52 C 59.33885139802727 442.52 53.725968039772724 436.807154048 53.725968039772724 429.76 Z" stroke-miterlimit="10"/></g><g transform="translate(10,-62) scale(1,1)"><path fill="none" stroke="#000000" d="M 66.2626953125 442.52 L 66.2626953125 467.48" stroke-miterlimit="10"/></g><g transform="translate(10,-62) scale(1,1)"><path fill="none" stroke="#000000" d="M 52.988513494318184 451.88 L 79.53687713068182 451.88" stroke-miterlimit="10"/></g><g transform="translate(10,-62) scale(1,1)"><path fill="none" stroke="#000000" d="M 66.2626953125 467.48 L 47.82633167613636 493" stroke-miterlimit="10"/></g><g transform="translate(10,-62) scale(1,1)"><path fill="none" stroke="#000000" d="M 66.2626953125 467.48 L 84.69905894886364 493" stroke-miterlimit="10"/></g><g transform="translate(10,-62) scale(1,1)"><g><path fill="none" stroke="none"/><text fill="#000000" stroke="none" font-family="Arial" font-size="13px" font-style="normal" font-weight="bold" text-decoration="none" x="8.81005859375" y="513.5">purchasingManager</text></g></g><g transform="translate(10,-62) scale(1,1)"><path fill="#ffffff" stroke="none" d="M 824.3916363636364 376.48 C 824.3916363636364 367.930631296 831.1558804107636 361 839.5 361 C 847.8441195892364 361 854.6083636363636 367.930631296 854.6083636363636 376.48 C 854.6083636363636 385.02936870400003 847.8441195892364 391.96 839.5 391.96 C 831.1558804107636 391.96 824.3916363636364 385.02936870400003 824.3916363636364 376.48 Z"/></g><g transform="translate(10,-62) scale(1,1)"><path fill="none" stroke="#000000" d="M 824.3916363636364 376.48 C 824.3916363636364 367.930631296 831.1558804107636 361 839.5 361 C 847.8441195892364 361 854.6083636363636 367.930631296 854.6083636363636 376.48 C 854.6083636363636 385.02936870400003 847.8441195892364 391.96 839.5 391.96 C 831.1558804107636 391.96 824.3916363636364 385.02936870400003 824.3916363636364 376.48 Z" stroke-miterlimit="10"/></g><g transform="translate(10,-62) scale(1,1)"><path fill="none" stroke="#000000" d="M 839.5 391.96 L 839.5 422.04" stroke-miterlimit="10"/></g><g transform="translate(10,-62) scale(1,1)"><path fill="none" stroke="#000000" d="M 823.502909090909 403.24 L 855.497090909091 403.24" stroke-miterlimit="10"/></g><g transform="translate(10,-62) scale(1,1)"><path fill="none" stroke="#000000" d="M 839.5 422.04 L 817.2818181818182 453" stroke-miterlimit="10"/></g><g transform="translate(10,-62) scale(1,1)"><path fill="none" stroke="#000000" d="M 839.5 422.04 L 861.7181818181818 453" stroke-miterlimit="10"/></g><g transform="translate(10,-62) scale(1,1)"><g><path fill="none" stroke="none"/><text fill="#000000" stroke="none" font-family="Arial" font-size="13px" font-style="normal" font-weight="bold" text-decoration="none" x="815.65185546875" y="473.5">Supplier</text></g></g><g transform="translate(10,-62) scale(1,1)"><path fill="none" stroke="#000000" d="M 535 388 L 799 415" stroke-miterlimit="10"/></g><g transform="translate(10,-62) scale(1,1)"><path fill="#C0C0C0" stroke="none" d="M 407 295 C 407 281.7451648 451.77152 271 507 271 C 562.22848 271 607 281.7451648 607 295 C 607 308.2548352 562.22848 319 507 319 C 451.77152 319 407 308.2548352 407 295 Z" opacity="0.2"/></g><g transform="translate(10,-62) scale(1,1)"><path fill="#ffffff" stroke="none" d="M 400 288 C 400 274.7451648 444.77152 264 500 264 C 555.22848 264 600 274.7451648 600 288 C 600 301.2548352 555.22848 312 500 312 C 444.77152 312 400 301.2548352 400 288 Z"/></g><g transform="translate(10,-62) scale(1,1)"><path fill="none" stroke="#000000" d="M 400 288 C 400 274.7451648 444.77152 264 500 264 C 555.22848 264 600 274.7451648 600 288 C 600 301.2548352 555.22848 312 500 312 C 444.77152 312 400 301.2548352 400 288 Z" stroke-miterlimit="10"/></g><g transform="translate(10,-62) scale(1,1)"><g><path fill="none" stroke="none"/><text fill="#000000" stroke="none" font-family="Arial" font-size="13px" font-style="normal" font-weight="bold" text-decoration="none" x="438.82763671875" y="295">RegisterTransactions</text></g></g><g transform="translate(10,-62) scale(1,1)"><path fill="#ffffff" stroke="none" d="M 55.37742613636364 588.5699999999999 C 55.37742613636364 582.180064864 60.48658919323636 577 66.7890625 577 C 73.09153580676363 577 78.20069886363636 582.180064864 78.20069886363636 588.5699999999999 C 78.20069886363636 594.9599351359999 73.09153580676363 600.14 66.7890625 600.14 C 60.48658919323636 600.14 55.37742613636364 594.9599351359999 55.37742613636364 588.5699999999999 Z"/></g><g transform="translate(10,-62) scale(1,1)"><path fill="none" stroke="#000000" d="M 55.37742613636364 588.5699999999999 C 55.37742613636364 582.180064864 60.48658919323636 577 66.7890625 577 C 73.09153580676363 577 78.20069886363636 582.180064864 78.20069886363636 588.5699999999999 C 78.20069886363636 594.9599351359999 73.09153580676363 600.14 66.7890625 600.14 C 60.48658919323636 600.14 55.37742613636364 594.9599351359999 55.37742613636364 588.5699999999999 Z" stroke-miterlimit="10"/></g><g transform="translate(10,-62) scale(1,1)"><path fill="none" stroke="#000000" d="M 66.7890625 600.14 L 66.7890625 622.86" stroke-miterlimit="10"/></g><g transform="translate(10,-62) scale(1,1)"><path fill="none" stroke="#000000" d="M 54.70615340909091 608.66 L 78.87197159090908 608.66" stroke-miterlimit="10"/></g><g transform="translate(10,-62) scale(1,1)"><path fill="none" stroke="#000000" d="M 66.7890625 622.86 L 50.00724431818182 646" stroke-miterlimit="10"/></g><g transform="translate(10,-62) scale(1,1)"><path fill="none" stroke="#000000" d="M 66.7890625 622.86 L 83.57088068181818 646" stroke-miterlimit="10"/></g><g transform="translate(10,-62) scale(1,1)"><g><path fill="none" stroke="none"/><text fill="#000000" stroke="none" font-family="Arial" font-size="13px" font-style="normal" font-weight="bold" text-decoration="none" x="31.013671875" y="666.5">BookKeeper</text></g></g><g transform="translate(10,-62) scale(1,1)"><path fill="#C0C0C0" stroke="none" d="M 279 458.5 C 279 447.7304464 319.9659408 439 370.5 439 C 421.0340592 439 462 447.7304464 462 458.5 C 462 469.2695536 421.0340592 478 370.5 478 C 319.9659408 478 279 469.2695536 279 458.5 Z" opacity="0.2"/></g><g transform="translate(10,-62) scale(1,1)"><path fill="#ffffff" stroke="none" d="M 272 451.5 C 272 440.7304464 312.9659408 432 363.5 432 C 414.0340592 432 455 440.7304464 455 451.5 C 455 462.2695536 414.0340592 471 363.5 471 C 312.9659408 471 272 462.2695536 272 451.5 Z"/></g><g transform="translate(10,-62) scale(1,1)"><path fill="none" stroke="#000000" d="M 272 451.5 C 272 440.7304464 312.9659408 432 363.5 432 C 414.0340592 432 455 440.7304464 455 451.5 C 455 462.2695536 414.0340592 471 363.5 471 C 312.9659408 471 272 462.2695536 272 451.5 Z" stroke-miterlimit="10"/></g><g transform="translate(10,-62) scale(1,1)"><g><path fill="none" stroke="none"/><text fill="#000000" stroke="none" font-family="Arial" font-size="13px" font-style="normal" font-weight="bold" text-decoration="none" x="340.3818359375" y="458.5">PayBills</text></g></g><g transform="translate(10,-62) scale(1,1)"><path fill="#C0C0C0" stroke="none" d="M 311 688 C 311 678.6111584 364.0542512 671 429.5 671 C 494.9457488 671 548 678.6111584 548 688 C 548 697.3888416 494.9457488 705 429.5 705 C 364.0542512 705 311 697.3888416 311 688 Z" opacity="0.2"/></g><g transform="translate(10,-62) scale(1,1)"><path fill="#ffffff" stroke="none" d="M 304 681 C 304 671.6111584 357.0542512 664 422.5 664 C 487.9457488 664 541 671.6111584 541 681 C 541 690.3888416 487.9457488 698 422.5 698 C 357.0542512 698 304 690.3888416 304 681 Z"/></g><g transform="translate(10,-62) scale(1,1)"><path fill="none" stroke="#000000" d="M 304 681 C 304 671.6111584 357.0542512 664 422.5 664 C 487.9457488 664 541 671.6111584 541 681 C 541 690.3888416 487.9457488 698 422.5 698 C 357.0542512 698 304 690.3888416 304 681 Z" stroke-miterlimit="10"/></g><g transform="translate(10,-62) scale(1,1)"><g><path fill="none" stroke="none"/><text fill="#000000" stroke="none" font-family="Arial" font-size="13px" font-style="normal" font-weight="bold" text-decoration="none" x="377.34912109375" y="688">MonitorDelivery</text></g></g><g transform="translate(10,-62) scale(1,1)"><path fill="#ffffff" stroke="none" d="M 51.20905184659091 700.4 C 51.20905184659091 694.10395328 56.24625486040909 689 62.4599609375 689 C 68.6736670145909 689 73.71087002840909 694.10395328 73.71087002840909 700.4 C 73.71087002840909 706.6960467199999 68.6736670145909 711.8 62.4599609375 711.8 C 56.24625486040909 711.8 51.20905184659091 706.6960467199999 51.20905184659091 700.4 Z"/></g><g transform="translate(10,-62) scale(1,1)"><path fill="none" stroke="#000000" d="M 51.20905184659091 700.4 C 51.20905184659091 694.10395328 56.24625486040909 689 62.4599609375 689 C 68.6736670145909 689 73.71087002840909 694.10395328 73.71087002840909 700.4 C 73.71087002840909 706.6960467199999 68.6736670145909 711.8 62.4599609375 711.8 C 56.24625486040909 711.8 51.20905184659091 706.6960467199999 51.20905184659091 700.4 Z" stroke-miterlimit="10"/></g><g transform="translate(10,-62) scale(1,1)"><path fill="none" stroke="#000000" d="M 62.4599609375 711.8 L 62.4599609375 734.2" stroke-miterlimit="10"/></g><g transform="translate(10,-62) scale(1,1)"><path fill="none" stroke="#000000" d="M 50.547233664772726 720.2 L 74.37268821022727 720.2" stroke-miterlimit="10"/></g><g transform="translate(10,-62) scale(1,1)"><path fill="none" stroke="#000000" d="M 62.4599609375 734.2 L 45.91450639204545 757" stroke-miterlimit="10"/></g><g transform="translate(10,-62) scale(1,1)"><path fill="none" stroke="#000000" d="M 62.4599609375 734.2 L 79.00541548295455 757" stroke-miterlimit="10"/></g><g transform="translate(10,-62) scale(1,1)"><g><path fill="none" stroke="none"/><text fill="#000000" stroke="none" font-family="Arial" font-size="13px" font-style="normal" font-weight="bold" text-decoration="none" x="31.035888671875" y="777.5">StockClerk</text></g></g><g transform="translate(10,-62) scale(1,1)"><path fill="#ffffff" stroke="none" d="M 819.0951791548296 559.12 C 819.0951791548296 551.321738624 825.2837428575205 545 832.917724609375 545 C 840.5517063612295 545 846.7402700639204 551.321738624 846.7402700639204 559.12 C 846.7402700639204 566.918261376 840.5517063612295 573.24 832.917724609375 573.24 C 825.2837428575205 573.24 819.0951791548296 566.918261376 819.0951791548296 559.12 Z"/></g><g transform="translate(10,-62) scale(1,1)"><path fill="none" stroke="#000000" d="M 819.0951791548296 559.12 C 819.0951791548296 551.321738624 825.2837428575205 545 832.917724609375 545 C 840.5517063612295 545 846.7402700639204 551.321738624 846.7402700639204 559.12 C 846.7402700639204 566.918261376 840.5517063612295 573.24 832.917724609375 573.24 C 825.2837428575205 573.24 819.0951791548296 566.918261376 819.0951791548296 559.12 Z" stroke-miterlimit="10"/></g><g transform="translate(10,-62) scale(1,1)"><path fill="none" stroke="#000000" d="M 832.917724609375 573.24 L 832.917724609375 600.76" stroke-miterlimit="10"/></g><g transform="translate(10,-62) scale(1,1)"><path fill="none" stroke="#000000" d="M 818.2820882457387 583.56 L 847.5533609730113 583.56" stroke-miterlimit="10"/></g><g transform="translate(10,-62) scale(1,1)"><path fill="none" stroke="#000000" d="M 832.917724609375 600.76 L 812.5904518821023 629" stroke-miterlimit="10"/></g><g transform="translate(10,-62) scale(1,1)"><path fill="none" stroke="#000000" d="M 832.917724609375 600.76 L 853.2449973366477 629" stroke-miterlimit="10"/></g><g transform="translate(10,-62) scale(1,1)"><g><path fill="none" stroke="none"/><text fill="#000000" stroke="none" font-family="Arial" font-size="13px" font-style="normal" font-weight="bold" text-decoration="none" x="792.083251953125" y="649.5">SupplierAgent</text></g></g><g transform="translate(10,-62) scale(1,1)"><path fill="none" stroke="#000000" d="M 512 663 L 783 609" stroke-miterlimit="10"/></g><g transform="translate(10,-62) scale(1,1)"><path fill="#C0C0C0" stroke="none" d="M 255 206.5 C 255 193.5213072 290.5933584 183 334.5 183 C 378.4066416 183 414 193.5213072 414 206.5 C 414 219.4786928 378.4066416 230 334.5 230 C 290.5933584 230 255 219.4786928 255 206.5 Z" opacity="0.2"/></g><g transform="translate(10,-62) scale(1,1)"><path fill="#ffffff" stroke="none" d="M 248 199.5 C 248 186.5213072 283.5933584 176 327.5 176 C 371.4066416 176 407 186.5213072 407 199.5 C 407 212.4786928 371.4066416 223 327.5 223 C 283.5933584 223 248 212.4786928 248 199.5 Z"/></g><g transform="translate(10,-62) scale(1,1)"><path fill="none" stroke="#000000" d="M 248 199.5 C 248 186.5213072 283.5933584 176 327.5 176 C 371.4066416 176 407 186.5213072 407 199.5 C 407 212.4786928 371.4066416 223 327.5 223 C 283.5933584 223 248 212.4786928 248 199.5 Z" stroke-miterlimit="10"/></g><g transform="translate(10,-62) scale(1,1)"><g><path fill="none" stroke="none"/><text fill="#000000" stroke="none" font-family="Arial" font-size="13px" font-style="normal" font-weight="bold" text-decoration="none" x="282.339599609375" y="206.5">CheckInventory</text></g></g><g transform="translate(10,-62) scale(1,1)"><path fill="#C0C0C0" stroke="none" d="M 303 618.5 C 303 603.312168 340.6080768 591 387 591 C 433.3919232 591 471 603.312168 471 618.5 C 471 633.687832 433.3919232 646 387 646 C 340.6080768 646 303 633.687832 303 618.5 Z" opacity="0.2"/></g><g transform="translate(10,-62) scale(1,1)"><path fill="#ffffff" stroke="none" d="M 296 611.5 C 296 596.312168 333.6080768 584 380 584 C 426.3919232 584 464 596.312168 464 611.5 C 464 626.687832 426.3919232 639 380 639 C 333.6080768 639 296 626.687832 296 611.5 Z"/></g><g transform="translate(10,-62) scale(1,1)"><path fill="none" stroke="#000000" d="M 296 611.5 C 296 596.312168 333.6080768 584 380 584 C 426.3919232 584 464 596.312168 464 611.5 C 464 626.687832 426.3919232 639 380 639 C 333.6080768 639 296 626.687832 296 611.5 Z" stroke-miterlimit="10"/></g><g transform="translate(10,-62) scale(1,1)"><g><path fill="none" stroke="none"/><text fill="#000000" stroke="none" font-family="Arial" font-size="13px" font-style="normal" font-weight="bold" text-decoration="none" x="329.06005859375" y="618.5">ViewTransactions</text></g></g><g transform="translate(10,-62) scale(1,1)"><path fill="#C0C0C0" stroke="none" d="M 311 774.5 C 311 761.5213072 359.8009568 751 420 751 C 480.1990432 751 529 761.5213072 529 774.5 C 529 787.4786928 480.1990432 798 420 798 C 359.8009568 798 311 787.4786928 311 774.5 Z" opacity="0.2"/></g><g transform="translate(10,-62) scale(1,1)"><path fill="#ffffff" stroke="none" d="M 304 767.5 C 304 754.5213072 352.8009568 744 413 744 C 473.1990432 744 522 754.5213072 522 767.5 C 522 780.4786928 473.1990432 791 413 791 C 352.8009568 791 304 780.4786928 304 767.5 Z"/></g><g transform="translate(10,-62) scale(1,1)"><path fill="none" stroke="#000000" d="M 304 767.5 C 304 754.5213072 352.8009568 744 413 744 C 473.1990432 744 522 754.5213072 522 767.5 C 522 780.4786928 473.1990432 791 413 791 C 352.8009568 791 304 780.4786928 304 767.5 Z" stroke-miterlimit="10"/></g><g transform="translate(10,-62) scale(1,1)"><g><path fill="none" stroke="none"/><text fill="#000000" stroke="none" font-family="Arial" font-size="13px" font-style="normal" font-weight="bold" text-decoration="none" x="365.3037109375" y="774.5">UpdateInventory</text></g></g><g transform="translate(10,-62) scale(1,1)"><path fill="#ffffff" stroke="none" d="M 57.67698668323864 132.57 C 57.67698668323864 126.180064864 62.78614974011136 121 69.088623046875 121 C 75.39109635363863 121 80.50025941051136 126.180064864 80.50025941051136 132.57 C 80.50025941051136 138.95993513599998 75.39109635363863 144.14 69.088623046875 144.14 C 62.78614974011136 144.14 57.67698668323864 138.95993513599998 57.67698668323864 132.57 Z"/></g><g transform="translate(10,-62) scale(1,1)"><path fill="none" stroke="#000000" d="M 57.67698668323864 132.57 C 57.67698668323864 126.180064864 62.78614974011136 121 69.088623046875 121 C 75.39109635363863 121 80.50025941051136 126.180064864 80.50025941051136 132.57 C 80.50025941051136 138.95993513599998 75.39109635363863 144.14 69.088623046875 144.14 C 62.78614974011136 144.14 57.67698668323864 138.95993513599998 57.67698668323864 132.57 Z" stroke-miterlimit="10"/></g><g transform="translate(10,-62) scale(1,1)"><path fill="none" stroke="#000000" d="M 69.088623046875 144.14 L 69.088623046875 166.86" stroke-miterlimit="10"/></g><g transform="translate(10,-62) scale(1,1)"><path fill="none" stroke="#000000" d="M 57.00571395596591 152.66 L 81.17153213778408 152.66" stroke-miterlimit="10"/></g><g transform="translate(10,-62) scale(1,1)"><path fill="none" stroke="#000000" d="M 69.088623046875 166.86 L 52.30680486505682 190" stroke-miterlimit="10"/></g><g transform="translate(10,-62) scale(1,1)"><path fill="none" stroke="#000000" d="M 69.088623046875 166.86 L 85.87044122869318 190" stroke-miterlimit="10"/></g><g transform="translate(10,-62) scale(1,1)"><g><path fill="none" stroke="none"/><text fill="#000000" stroke="none" font-family="Arial" font-size="13px" font-style="normal" font-weight="bold" text-decoration="none" x="55.364990234375" y="210.5">User</text></g></g><g transform="translate(10,-62) scale(1,1)"><path fill="#C0C0C0" stroke="none" d="M 311 142.5 C 311 125.1030288 347.936504 111 393.5 111 C 439.063496 111 476 125.1030288 476 142.5 C 476 159.8969712 439.063496 174 393.5 174 C 347.936504 174 311 159.8969712 311 142.5 Z" opacity="0.2"/></g><g transform="translate(10,-62) scale(1,1)"><path fill="#ffffff" stroke="none" d="M 304 135.5 C 304 118.1030288 340.936504 104 386.5 104 C 432.063496 104 469 118.1030288 469 135.5 C 469 152.8969712 432.063496 167 386.5 167 C 340.936504 167 304 152.8969712 304 135.5 Z"/></g><g transform="translate(10,-62) scale(1,1)"><path fill="none" stroke="#000000" d="M 304 135.5 C 304 118.1030288 340.936504 104 386.5 104 C 432.063496 104 469 118.1030288 469 135.5 C 469 152.8969712 432.063496 167 386.5 167 C 340.936504 167 304 152.8969712 304 135.5 Z" stroke-miterlimit="10"/></g><g transform="translate(10,-62) scale(1,1)"><g><path fill="none" stroke="none"/><text fill="#000000" stroke="none" font-family="Arial" font-size="13px" font-style="normal" font-weight="bold" text-decoration="none" x="336.63916015625" y="142.5">AuthenticateUser</text></g></g><g transform="translate(10,-62) scale(1,1)"><path fill="none" stroke="#000000" d="M 107 164 L 303 144" stroke-miterlimit="10"/></g><g transform="translate(10,-62) scale(1,1)"><path fill="none" stroke="#000000" d="M 293.3171477443625 149.21942259215473 L 303 144 L 292.46250040002036 140.84387861760212" stroke-miterlimit="10"/></g><g transform="translate(10,-62) scale(1,1)"><path fill="none" stroke="#000000" d="M 117 415 L 303 224" stroke-miterlimit="10"/></g><g transform="translate(10,-62) scale(1,1)"><path fill="none" stroke="#000000" d="M 298.92562404872916 234.21760542434996 L 303 224 L 292.8940430527067 228.3439192187993" stroke-miterlimit="10"/></g><g transform="translate(10,-62) scale(1,1)"><path fill="none" stroke="#000000" d="M 134 450 L 355 395" stroke-miterlimit="10"/></g><g transform="translate(10,-62) scale(1,1)"><path fill="none" stroke="#000000" d="M 346.15474618095135 401.5392266267966 L 355 395 L 344.121529551711 393.369392534758" stroke-miterlimit="10"/></g><g transform="translate(10,-62) scale(1,1)"><path fill="none" stroke="#000000" d="M 111 622 L 295 615" stroke-miterlimit="10"/></g><g transform="translate(10,-62) scale(1,1)"><path fill="none" stroke="#000000" d="M 285.0047003541343 619.5928188500482 L 295 615 L 284.68464248678646 611.1798691940473" stroke-miterlimit="10"/></g><g transform="translate(10,-62) scale(1,1)"><path fill="none" stroke="#000000" d="M 102 729 L 303 699" stroke-miterlimit="10"/></g><g transform="translate(10,-62) scale(1,1)"><path fill="none" stroke="#000000" d="M 293.57006663638913 704.6635992758897 L 303 699 L 292.32726071854864 696.3367996263584" stroke-miterlimit="10"/></g><g transform="translate(10,-62) scale(1,1)"><path fill="none" stroke="#000000" d="M 102 739 L 303 757" stroke-miterlimit="10"/></g><g transform="translate(10,-62) scale(1,1)"><path fill="none" stroke="#000000" d="M 292.5023627904853 760.2862764669778 L 303 757 L 293.25330116806214 751.9007979173697" stroke-miterlimit="10"/></g><g transform="translate(10,-62) scale(1,1)"><path fill="none" stroke="#000000" d="M 442 359 L 479 313" stroke-miterlimit="10" stroke-dasharray="3"/></g><g transform="translate(10,-62) scale(1,1)"><path fill="none" stroke="#000000" d="M 475.9105685333413 323.55724458430416 L 479 313 L 469.3503428237081 318.28054129612093" stroke-miterlimit="10"/></g><g transform="translate(10,-62) scale(1,1)"><g><path fill="none" stroke="none"/><text fill="#000000" stroke="none" font-family="Arial" font-size="13px" font-style="normal" font-weight="normal" text-decoration="none" x="374.5" y="340.5">«include»</text></g></g><g transform="translate(10,-62) scale(1,1)"><path fill="#C0C0C0" stroke="none" d="M 359 506.5 C 359 495.7304464 392.8024976 487 434.5 487 C 476.1975024 487 510 495.7304464 510 506.5 C 510 517.2695536 476.1975024 526 434.5 526 C 392.8024976 526 359 517.2695536 359 506.5 Z" opacity="0.2"/></g><g transform="translate(10,-62) scale(1,1)"><path fill="#ffffff" stroke="none" d="M 352 499.5 C 352 488.7304464 385.8024976 480 427.5 480 C 469.1975024 480 503 488.7304464 503 499.5 C 503 510.2695536 469.1975024 519 427.5 519 C 385.8024976 519 352 510.2695536 352 499.5 Z"/></g><g transform="translate(10,-62) scale(1,1)"><path fill="none" stroke="#000000" d="M 352 499.5 C 352 488.7304464 385.8024976 480 427.5 480 C 469.1975024 480 503 488.7304464 503 499.5 C 503 510.2695536 469.1975024 519 427.5 519 C 385.8024976 519 352 510.2695536 352 499.5 Z" stroke-miterlimit="10"/></g><g transform="translate(10,-62) scale(1,1)"><g><path fill="none" stroke="none"/><text fill="#000000" stroke="none" font-family="Arial" font-size="13px" font-style="normal" font-weight="bold" text-decoration="none" x="389.925048828125" y="506.5">UpdateOrder</text></g></g><g transform="translate(10,-62) scale(1,1)"><path fill="none" stroke="#000000" d="M 411 395 L 380 431" stroke-miterlimit="10" stroke-dasharray="3"/></g><g transform="translate(10,-62) scale(1,1)"><path fill="none" stroke="#000000" d="M 383.44153923327826 420.55223431992243 L 380 431 L 389.8212216902015 426.0458497689397" stroke-miterlimit="10"/></g><g transform="translate(10,-62) scale(1,1)"><g><path fill="none" stroke="none"/><text fill="#000000" stroke="none" font-family="Arial" font-size="13px" font-style="normal" font-weight="normal" text-decoration="none" x="399.5" y="419.5">«include»</text></g></g><g transform="translate(10,-62) scale(1,1)"><path fill="none" stroke="#000000" d="M 134 473 L 351 492" stroke-miterlimit="10"/></g><g transform="translate(10,-62) scale(1,1)"><path fill="none" stroke="#000000" d="M 340.5088872621127 495.3070460415512 L 351 492 L 341.24322835917036 486.9200977225243" stroke-miterlimit="10"/></g><g transform="translate(10,-62) scale(1,1)"><path fill="#C0C0C0" stroke="none" d="M 215 554.5 C 215 543.7304464 241.4151968 535 274 535 C 306.5848032 535 333 543.7304464 333 554.5 C 333 565.2695536 306.5848032 574 274 574 C 241.4151968 574 215 565.2695536 215 554.5 Z" opacity="0.2"/></g><g transform="translate(10,-62) scale(1,1)"><path fill="#ffffff" stroke="none" d="M 208 547.5 C 208 536.7304464 234.4151968 528 267 528 C 299.5848032 528 326 536.7304464 326 547.5 C 326 558.2695536 299.5848032 567 267 567 C 234.4151968 567 208 558.2695536 208 547.5 Z"/></g><g transform="translate(10,-62) scale(1,1)"><path fill="none" stroke="#000000" d="M 208 547.5 C 208 536.7304464 234.4151968 528 267 528 C 299.5848032 528 326 536.7304464 326 547.5 C 326 558.2695536 299.5848032 567 267 567 C 234.4151968 567 208 558.2695536 208 547.5 Z" stroke-miterlimit="10"/></g><g transform="translate(10,-62) scale(1,1)"><g><path fill="none" stroke="none"/><text fill="#000000" stroke="none" font-family="Arial" font-size="13px" font-style="normal" font-weight="bold" text-decoration="none" x="231.595947265625" y="554.5">DeleteOrder</text></g></g><g transform="translate(10,-62) scale(1,1)"><path fill="none" stroke="#000000" d="M 134 494 L 217 527" stroke-miterlimit="10"/></g><g transform="translate(10,-62) scale(1,1)"><path fill="none" stroke="#000000" d="M 206.00112022937668 527.1569834111405 L 217 527 L 209.11161349418552 519.3336215632879" stroke-miterlimit="10"/></g></g></svg>