<svg version="1.1" xmlns="http://www.w3.org/2000/svg" xmlns:xlink="http://www.w3.org/1999/xlink" width="725.83544921875" height="510"><defs/><g><text fill="#eeeeee" stroke="none" font-family="Arial" font-size="24px" font-style="normal" font-weight="normal" text-decoration="none" x="0" y="0"></text><text fill="#eeeeee" stroke="none" font-family="Arial" font-size="24px" font-style="normal" font-weight="normal" text-decoration="none" x="0" y="30"></text><text fill="#eeeeee" stroke="none" font-family="Arial" font-size="24px" font-style="normal" font-weight="normal" text-decoration="none" x="0" y="60"></text><text fill="#eeeeee" stroke="none" font-family="Arial" font-size="24px" font-style="normal" font-weight="normal" text-decoration="none" x="0" y="90"></text><text fill="#eeeeee" stroke="none" font-family="Arial" font-size="24px" font-style="normal" font-weight="normal" text-decoration="none" x="0" y="120"></text><text fill="#eeeeee" stroke="none" font-family="Arial" font-size="24px" font-style="normal" font-weight="normal" text-decoration="none" x="0" y="150"></text><text fill="#eeeeee" stroke="none" font-family="Arial" font-size="24px" font-style="normal" font-weight="normal" text-decoration="none" x="0" y="180"></text><text fill="#eeeeee" stroke="none" font-family="Arial" font-size="24px" font-style="normal" font-weight="normal" text-decoration="none" x="0" y="210"></text><text fill="#eeeeee" stroke="none" font-family="Arial" font-size="24px" font-style="normal" font-weight="normal" text-decoration="none" x="0" y="240"></text><text fill="#eeeeee" stroke="none" font-family="Arial" font-size="24px" font-style="normal" font-weight="normal" text-decoration="none" x="0" y="270"></text><text fill="#eeeeee" stroke="none" font-family="Arial" font-size="24px" font-style="normal" font-weight="normal" text-decoration="none" x="0" y="300"></text><text fill="#eeeeee" stroke="none" font-family="Arial" font-size="24px" font-style="normal" font-weight="normal" text-decoration="none" x="0" y="330"></text><text fill="#eeeeee" stroke="none" font-family="Arial" font-size="24px" font-style="normal" font-weight="normal" text-decoration="none" x="0" y="360"></text><text fill="#eeeeee" stroke="none" font-family="Arial" font-size="24px" font-style="normal" font-weight="normal" text-decoration="none" x="0" y="390"></text><text fill="#eeeeee" stroke="none" font-family="Arial" font-size="24px" font-style="normal" font-weight="normal" text-decoration="none" x="0" y="420"></text><text fill="#eeeeee" stroke="none" font-family="Arial" font-size="24px" font-style="normal" font-weight="normal" text-decoration="none" x="0" y="450"></text><text fill="#eeeeee" stroke="none" font-family="Arial" font-size="24px" font-style="normal" font-weight="normal" text-decoration="none" x="0" y="480"></text><text fill="#eeeeee" stroke="none" font-family="Arial" font-size="24px" font-style="normal" font-weight="normal" text-decoration="none" x="200" y="0"></text><text fill="#eeeeee" stroke="none" font-family="Arial" font-size="24px" font-style="normal" font-weight="normal" text-decoration="none" x="200" y="30"></text><text fill="#eeeeee" stroke="none" font-family="Arial" font-size="24px" font-style="normal" font-weight="normal" text-decoration="none" x="200" y="60"></text><text fill="#eeeeee" stroke="none" font-family="Arial" font-size="24px" font-style="normal" font-weight="normal" text-decoration="none" x="200" y="90"></text><text fill="#eeeeee" stroke="none" font-family="Arial" font-size="24px" font-style="normal" font-weight="normal" text-decoration="none" x="200" y="120"></text><text fill="#eeeeee" stroke="none" font-family="Arial" font-size="24px" font-style="normal" font-weight="normal" text-decoration="none" x="200" y="150"></text><text fill="#eeeeee" stroke="none" font-family="Arial" font-size="24px" font-style="normal" font-weight="normal" text-decoration="none" x="200" y="180"></text><text fill="#eeeeee" stroke="none" font-family="Arial" font-size="24px" font-style="normal" font-weight="normal" text-decoration="none" x="200" y="210"></text><text fill="#eeeeee" stroke="none" font-family="Arial" font-size="24px" font-style="normal" font-weight="normal" text-decoration="none" x="200" y="240"></text><text fill="#eeeeee" stroke="none" font-family="Arial" font-size="24px" font-style="normal" font-weight="normal" text-decoration="none" x="200" y="270"></text><text fill="#eeeeee" stroke="none" font-family="Arial" font-size="24px" font-style="normal" font-weight="normal" text-decoration="none" x="200" y="300"></text><text fill="#eeeeee" stroke="none" font-family="Arial" font-size="24px" font-style="normal" font-weight="normal" text-decoration="none" x="200" y="330"></text><text fill="#eeeeee" stroke="none" font-family="Arial" font-size="24px" font-style="normal" font-weight="normal" text-decoration="none" x="200" y="360"></text><text fill="#eeeeee" stroke="none" font-family="Arial" font-size="24px" font-style="normal" font-weight="normal" text-decoration="none" x="200" y="390"></text><text fill="#eeeeee" stroke="none" font-family="Arial" font-size="24px" font-style="normal" font-weight="normal" text-decoration="none" x="200" y="420"></text><text fill="#eeeeee" stroke="none" font-family="Arial" font-size="24px" font-style="normal" font-weight="normal" text-decoration="none" x="200" y="450"></text><text fill="#eeeeee" stroke="none" font-family="Arial" font-size="24px" font-style="normal" font-weight="normal" text-decoration="none" x="200" y="480"></text><text fill="#eeeeee" stroke="none" font-family="Arial" font-size="24px" font-style="normal" font-weight="normal" text-decoration="none" x="400" y="0"></text><text fill="#eeeeee" stroke="none" font-family="Arial" font-size="24px" font-style="normal" font-weight="normal" text-decoration="none" x="400" y="30"></text><text fill="#eeeeee" stroke="none" font-family="Arial" font-size="24px" font-style="normal" font-weight="normal" text-decoration="none" x="400" y="60"></text><text fill="#eeeeee" stroke="none" font-family="Arial" font-size="24px" font-style="normal" font-weight="normal" text-decoration="none" x="400" y="90"></text><text fill="#eeeeee" stroke="none" font-family="Arial" font-size="24px" font-style="normal" font-weight="normal" text-decoration="none" x="400" y="120"></text><text fill="#eeeeee" stroke="none" font-family="Arial" font-size="24px" font-style="normal" font-weight="normal" text-decoration="none" x="400" y="150"></text><text fill="#eeeeee" stroke="none" font-family="Arial" font-size="24px" font-style="normal" font-weight="normal" text-decoration="none" x="400" y="180"></text><text fill="#eeeeee" stroke="none" font-family="Arial" font-size="24px" font-style="normal" font-weight="normal" text-decoration="none" x="400" y="210"></text><text fill="#eeeeee" stroke="none" font-family="Arial" font-size="24px" font-style="normal" font-weight="normal" text-decoration="none" x="400" y="240"></text><text fill="#eeeeee" stroke="none" font-family="Arial" font-size="24px" font-style="normal" font-weight="normal" text-decoration="none" x="400" y="270"></text><text fill="#eeeeee" stroke="none" font-family="Arial" font-size="24px" font-style="normal" font-weight="normal" text-decoration="none" x="400" y="300"></text><text fill="#eeeeee" stroke="none" font-family="Arial" font-size="24px" font-style="normal" font-weight="normal" text-decoration="none" x="400" y="330"></text><text fill="#eeeeee" stroke="none" font-family="Arial" font-size="24px" font-style="normal" font-weight="normal" text-decoration="none" x="400" y="360"></text><text fill="#eeeeee" stroke="none" font-family="Arial" font-size="24px" font-style="normal" font-weight="normal" text-decoration="none" x="400" y="390"></text><text fill="#eeeeee" stroke="none" font-family="Arial" font-size="24px" font-style="normal" font-weight="normal" text-decoration="none" x="400" y="420"></text><text fill="#eeeeee" stroke="none" font-family="Arial" font-size="24px" font-style="normal" font-weight="normal" text-decoration="none" x="400" y="450"></text><text fill="#eeeeee" stroke="none" font-family="Arial" font-size="24px" font-style="normal" font-weight="normal" text-decoration="none" x="400" y="480"></text><text fill="#eeeeee" stroke="none" font-family="Arial" font-size="24px" font-style="normal" font-weight="normal" text-decoration="none" x="600" y="0"></text><text fill="#eeeeee" stroke="none" font-family="Arial" font-size="24px" font-style="normal" font-weight="normal" text-decoration="none" x="600" y="30"></text><text fill="#eeeeee" stroke="none" font-family="Arial" font-size="24px" font-style="normal" font-weight="normal" text-decoration="none" x="600" y="60"></text><text fill="#eeeeee" stroke="none" font-family="Arial" font-size="24px" font-style="normal" font-weight="normal" text-decoration="none" x="600" y="90"></text><text fill="#eeeeee" stroke="none" font-family="Arial" font-size="24px" font-style="normal" font-weight="normal" text-decoration="none" x="600" y="120"></text><text fill="#eeeeee" stroke="none" font-family="Arial" font-size="24px" font-style="normal" font-weight="normal" text-decoration="none" x="600" y="150"></text><text fill="#eeeeee" stroke="none" font-family="Arial" font-size="24px" font-style="normal" font-weight="normal" text-decoration="none" x="600" y="180"></text><text fill="#eeeeee" stroke="none" font-family="Arial" font-size="24px" font-style="normal" font-weight="normal" text-decoration="none" x="600" y="210"></text><text fill="#eeeeee" stroke="none" font-family="Arial" font-size="24px" font-style="normal" font-weight="normal" text-decoration="none" x="600" y="240"></text><text fill="#eeeeee" stroke="none" font-family="Arial" font-size="24px" font-style="normal" font-weight="normal" text-decoration="none" x="600" y="270"></text><text fill="#eeeeee" stroke="none" font-family="Arial" font-size="24px" font-style="normal" font-weight="normal" text-decoration="none" x="600" y="300"></text><text fill="#eeeeee" stroke="none" font-family="Arial" font-size="24px" font-style="normal" font-weight="normal" text-decoration="none" x="600" y="330"></text><text fill="#eeeeee" stroke="none" font-family="Arial" font-size="24px" font-style="normal" font-weight="normal" text-decoration="none" x="600" y="360"></text><text fill="#eeeeee" stroke="none" font-family="Arial" font-size="24px" font-style="normal" font-weight="normal" text-decoration="none" x="600" y="390"></text><text fill="#eeeeee" stroke="none" font-family="Arial" font-size="24px" font-style="normal" font-weight="normal" text-decoration="none" x="600" y="420"></text><text fill="#eeeeee" stroke="none" font-family="Arial" font-size="24px" font-style="normal" font-weight="normal" text-decoration="none" x="600" y="450"></text><text fill="#eeeeee" stroke="none" font-family="Arial" font-size="24px" font-style="normal" font-weight="normal" text-decoration="none" x="600" y="480"></text><g transform="translate(2,-14) scale(1,1)"><path fill="#ffffff" stroke="none" d="M 65.94841281960227 121.68 C 65.94841281960227 116.886167936 69.83425514454773 113 74.627685546875 113 C 79.42111594920227 113 83.30695827414773 116.886167936 83.30695827414773 121.68 C 83.30695827414773 126.473832064 79.42111594920227 130.36 74.627685546875 130.36 C 69.83425514454773 130.36 65.94841281960227 126.473832064 65.94841281960227 121.68 Z"/></g><g transform="translate(2,-14) scale(1,1)"><path fill="none" stroke="#000000" d="M 65.94841281960227 121.68 C 65.94841281960227 116.886167936 69.83425514454773 113 74.627685546875 113 C 79.42111594920227 113 83.30695827414773 116.886167936 83.30695827414773 121.68 C 83.30695827414773 126.473832064 79.42111594920227 130.36 74.627685546875 130.36 C 69.83425514454773 130.36 65.94841281960227 126.473832064 65.94841281960227 121.68 Z" stroke-miterlimit="10"/></g><g transform="translate(2,-14) scale(1,1)"><path fill="none" stroke="#000000" d="M 74.627685546875 130.36 L 74.627685546875 147.64" stroke-miterlimit="10"/></g><g transform="translate(2,-14) scale(1,1)"><path fill="none" stroke="#000000" d="M 65.43786736505682 136.84 L 83.81750372869318 136.84" stroke-miterlimit="10"/></g><g transform="translate(2,-14) scale(1,1)"><path fill="none" stroke="#000000" d="M 74.627685546875 147.64 L 61.864049183238635 165" stroke-miterlimit="10"/></g><g transform="translate(2,-14) scale(1,1)"><path fill="none" stroke="#000000" d="M 74.627685546875 147.64 L 87.39132191051137 165" stroke-miterlimit="10"/></g><g transform="translate(2,-14) scale(1,1)"><g><path fill="none" stroke="none"/><text fill="#000000" stroke="none" font-family="Arial" font-size="13px" font-style="normal" font-weight="bold" text-decoration="none" x="16.45458984375" y="185.5">PurchasingManager</text></g></g><g transform="translate(2,-14) scale(1,1)"><path fill="#ffffff" stroke="none" d="M 653.8239011008523 129.68 C 653.8239011008523 124.886167936 657.7097434257977 121 662.503173828125 121 C 667.2966042304523 121 671.1824465553977 124.886167936 671.1824465553977 129.68 C 671.1824465553977 134.47383206400002 667.2966042304523 138.36 662.503173828125 138.36 C 657.7097434257977 138.36 653.8239011008523 134.47383206400002 653.8239011008523 129.68 Z"/></g><g transform="translate(2,-14) scale(1,1)"><path fill="none" stroke="#000000" d="M 653.8239011008523 129.68 C 653.8239011008523 124.886167936 657.7097434257977 121 662.503173828125 121 C 667.2966042304523 121 671.1824465553977 124.886167936 671.1824465553977 129.68 C 671.1824465553977 134.47383206400002 667.2966042304523 138.36 662.503173828125 138.36 C 657.7097434257977 138.36 653.8239011008523 134.47383206400002 653.8239011008523 129.68 Z" stroke-miterlimit="10"/></g><g transform="translate(2,-14) scale(1,1)"><path fill="none" stroke="#000000" d="M 662.503173828125 138.36 L 662.503173828125 155.64" stroke-miterlimit="10"/></g><g transform="translate(2,-14) scale(1,1)"><path fill="none" stroke="#000000" d="M 653.3133556463068 144.84 L 671.6929920099432 144.84" stroke-miterlimit="10"/></g><g transform="translate(2,-14) scale(1,1)"><path fill="none" stroke="#000000" d="M 662.503173828125 155.64 L 649.7395374644886 173" stroke-miterlimit="10"/></g><g transform="translate(2,-14) scale(1,1)"><path fill="none" stroke="#000000" d="M 662.503173828125 155.64 L 675.2668101917614 173" stroke-miterlimit="10"/></g><g transform="translate(2,-14) scale(1,1)"><g><path fill="none" stroke="none"/><text fill="#000000" stroke="none" font-family="Arial" font-size="13px" font-style="normal" font-weight="bold" text-decoration="none" x="638.655029296875" y="193.5">Supplier</text></g></g><g transform="translate(2,-14) scale(1,1)"><path fill="#C0C0C0" stroke="none" d="M 279 98.5 C 279 83.312168 322.4283744 71 376 71 C 429.5716256 71 473 83.312168 473 98.5 C 473 113.687832 429.5716256 126 376 126 C 322.4283744 126 279 113.687832 279 98.5 Z" opacity="0.2"/></g><g transform="translate(2,-14) scale(1,1)"><path fill="#ffffff" stroke="none" d="M 272 91.5 C 272 76.312168 315.4283744 64 369 64 C 422.5716256 64 466 76.312168 466 91.5 C 466 106.687832 422.5716256 119 369 119 C 315.4283744 119 272 106.687832 272 91.5 Z"/></g><g transform="translate(2,-14) scale(1,1)"><path fill="none" stroke="#000000" d="M 272 91.5 C 272 76.312168 315.4283744 64 369 64 C 422.5716256 64 466 76.312168 466 91.5 C 466 106.687832 422.5716256 119 369 119 C 315.4283744 119 272 106.687832 272 91.5 Z" stroke-miterlimit="10"/></g><g transform="translate(2,-14) scale(1,1)"><g><path fill="none" stroke="none"/><text fill="#000000" stroke="none" font-family="Arial" font-size="13px" font-style="normal" font-weight="bold" text-decoration="none" x="309.3828125" y="98.5">OrderEdibleSupplies</text></g></g><g transform="translate(2,-14) scale(1,1)"><path fill="#ffffff" stroke="none" d="M 32 24 L 221 24 L 231 34 L 231 60 L 32 60 L 32 24"/></g><g transform="translate(2,-14) scale(1,1)"><path fill="none" stroke="#000000" d="M 32 24 L 221 24 L 231 34 L 231 60 L 32 60 L 32 24 L 32 24" stroke-miterlimit="10"/></g><g transform="translate(2,-14) scale(1,1)"><path fill="none" stroke="#000000" d="M 221 24 L 221 34 L 231 34 L 221 24" stroke-miterlimit="10"/></g><g transform="translate(2,-14) scale(1,1)"><g><path fill="none" stroke="none"/><text fill="#000000" stroke="none" font-family="Arial" font-size="13px" font-style="normal" font-weight="normal" text-decoration="none" x="37" y="42">Business Use Case Diagram</text></g></g><g transform="translate(2,-14) scale(1,1)"><path fill="none" stroke="#000000" d="M 271 111 L 142 137" stroke-miterlimit="10"/></g><g transform="translate(2,-14) scale(1,1)"><path fill="none" stroke="#000000" d="M 631 152 L 467 114" stroke-miterlimit="10"/></g><g transform="translate(2,-14) scale(1,1)"><path fill="#C0C0C0" stroke="none" d="M 263 152 C 263 142.6111584 314.487248 135 378 135 C 441.512752 135 493 142.6111584 493 152 C 493 161.3888416 441.512752 169 378 169 C 314.487248 169 263 161.3888416 263 152 Z" opacity="0.2"/></g><g transform="translate(2,-14) scale(1,1)"><path fill="#ffffff" stroke="none" d="M 256 145 C 256 135.6111584 307.487248 128 371 128 C 434.512752 128 486 135.6111584 486 145 C 486 154.3888416 434.512752 162 371 162 C 307.487248 162 256 154.3888416 256 145 Z"/></g><g transform="translate(2,-14) scale(1,1)"><path fill="none" stroke="#000000" d="M 256 145 C 256 135.6111584 307.487248 128 371 128 C 434.512752 128 486 135.6111584 486 145 C 486 154.3888416 434.512752 162 371 162 C 307.487248 162 256 154.3888416 256 145 Z" stroke-miterlimit="10"/></g><g transform="translate(2,-14) scale(1,1)"><g><path fill="none" stroke="none"/><text fill="#000000" stroke="none" font-family="Arial" font-size="13px" font-style="normal" font-weight="bold" text-decoration="none" x="299.458740234375" y="152">OrderNonEdibleSupplies</text></g></g><g transform="translate(2,-14) scale(1,1)"><path fill="none" stroke="#000000" d="M 487 151 L 631 158" stroke-miterlimit="10"/></g><g transform="translate(2,-14) scale(1,1)"><path fill="none" stroke="#000000" d="M 142 150 L 255 147" stroke-miterlimit="10"/></g><g transform="translate(2,-14) scale(1,1)"><path fill="#C0C0C0" stroke="none" d="M 303 386.5 C 303 375.7304464 357.1735392 367 424 367 C 490.8264608 367 545 375.7304464 545 386.5 C 545 397.2695536 490.8264608 406 424 406 C 357.1735392 406 303 397.2695536 303 386.5 Z" opacity="0.2"/></g><g transform="translate(2,-14) scale(1,1)"><path fill="#ffffff" stroke="none" d="M 296 379.5 C 296 368.7304464 350.1735392 360 417 360 C 483.8264608 360 538 368.7304464 538 379.5 C 538 390.2695536 483.8264608 399 417 399 C 350.1735392 399 296 390.2695536 296 379.5 Z"/></g><g transform="translate(2,-14) scale(1,1)"><path fill="none" stroke="#000000" d="M 296 379.5 C 296 368.7304464 350.1735392 360 417 360 C 483.8264608 360 538 368.7304464 538 379.5 C 538 390.2695536 483.8264608 399 417 399 C 350.1735392 399 296 390.2695536 296 379.5 Z" stroke-miterlimit="10"/></g><g transform="translate(2,-14) scale(1,1)"><g><path fill="none" stroke="none"/><text fill="#000000" stroke="none" font-family="Arial" font-size="13px" font-style="normal" font-weight="bold" text-decoration="none" x="341.846923828125" y="386.5">ReceiveInventorySupplies</text></g></g><g transform="translate(2,-14) scale(1,1)"><path fill="#ffffff" stroke="none" d="M 88.25114719460227 409.68 C 88.25114719460227 404.886167936 92.13698951954773 401 96.930419921875 401 C 101.72385032420227 401 105.60969264914773 404.886167936 105.60969264914773 409.68 C 105.60969264914773 414.473832064 101.72385032420227 418.36 96.930419921875 418.36 C 92.13698951954773 418.36 88.25114719460227 414.473832064 88.25114719460227 409.68 Z"/></g><g transform="translate(2,-14) scale(1,1)"><path fill="none" stroke="#000000" d="M 88.25114719460227 409.68 C 88.25114719460227 404.886167936 92.13698951954773 401 96.930419921875 401 C 101.72385032420227 401 105.60969264914773 404.886167936 105.60969264914773 409.68 C 105.60969264914773 414.473832064 101.72385032420227 418.36 96.930419921875 418.36 C 92.13698951954773 418.36 88.25114719460227 414.473832064 88.25114719460227 409.68 Z" stroke-miterlimit="10"/></g><g transform="translate(2,-14) scale(1,1)"><path fill="none" stroke="#000000" d="M 96.930419921875 418.36 L 96.930419921875 435.64" stroke-miterlimit="10"/></g><g transform="translate(2,-14) scale(1,1)"><path fill="none" stroke="#000000" d="M 87.74060174005682 424.84 L 106.12023810369318 424.84" stroke-miterlimit="10"/></g><g transform="translate(2,-14) scale(1,1)"><path fill="none" stroke="#000000" d="M 96.930419921875 435.64 L 84.16678355823863 453" stroke-miterlimit="10"/></g><g transform="translate(2,-14) scale(1,1)"><path fill="none" stroke="#000000" d="M 96.930419921875 435.64 L 109.69405628551137 453" stroke-miterlimit="10"/></g><g transform="translate(2,-14) scale(1,1)"><g><path fill="none" stroke="none"/><text fill="#000000" stroke="none" font-family="Arial" font-size="13px" font-style="normal" font-weight="bold" text-decoration="none" x="65.50634765625" y="473.5">StockClerk</text></g></g><g transform="translate(2,-14) scale(1,1)"><path fill="none" stroke="#000000" d="M 305 400 L 147 429" stroke-miterlimit="10"/></g><g transform="translate(2,-14) scale(1,1)"><path fill="#C0C0C0" stroke="none" d="M 295 192 C 295 182.6111584 332.3842192 175 378.5 175 C 424.6157808 175 462 182.6111584 462 192 C 462 201.3888416 424.6157808 209 378.5 209 C 332.3842192 209 295 201.3888416 295 192 Z" opacity="0.2"/></g><g transform="translate(2,-14) scale(1,1)"><path fill="#ffffff" stroke="none" d="M 288 185 C 288 175.6111584 325.3842192 168 371.5 168 C 417.6157808 168 455 175.6111584 455 185 C 455 194.3888416 417.6157808 202 371.5 202 C 325.3842192 202 288 194.3888416 288 185 Z"/></g><g transform="translate(2,-14) scale(1,1)"><path fill="none" stroke="#000000" d="M 288 185 C 288 175.6111584 325.3842192 168 371.5 168 C 417.6157808 168 455 175.6111584 455 185 C 455 194.3888416 417.6157808 202 371.5 202 C 325.3842192 202 288 194.3888416 288 185 Z" stroke-miterlimit="10"/></g><g transform="translate(2,-14) scale(1,1)"><g><path fill="none" stroke="none"/><text fill="#000000" stroke="none" font-family="Arial" font-size="13px" font-style="normal" font-weight="bold" text-decoration="none" x="330.668701171875" y="192">SendPayment</text></g></g><g transform="translate(2,-14) scale(1,1)"><path fill="#C0C0C0" stroke="none" d="M 303 232 C 303 222.6111584 338.5933584 215 382.5 215 C 426.4066416 215 462 222.6111584 462 232 C 462 241.3888416 426.4066416 249 382.5 249 C 338.5933584 249 303 241.3888416 303 232 Z" opacity="0.2"/></g><g transform="translate(2,-14) scale(1,1)"><path fill="#ffffff" stroke="none" d="M 296 225 C 296 215.6111584 331.5933584 208 375.5 208 C 419.4066416 208 455 215.6111584 455 225 C 455 234.3888416 419.4066416 242 375.5 242 C 331.5933584 242 296 234.3888416 296 225 Z"/></g><g transform="translate(2,-14) scale(1,1)"><path fill="none" stroke="#000000" d="M 296 225 C 296 215.6111584 331.5933584 208 375.5 208 C 419.4066416 208 455 215.6111584 455 225 C 455 234.3888416 419.4066416 242 375.5 242 C 331.5933584 242 296 234.3888416 296 225 Z" stroke-miterlimit="10"/></g><g transform="translate(2,-14) scale(1,1)"><g><path fill="none" stroke="none"/><text fill="#000000" stroke="none" font-family="Arial" font-size="13px" font-style="normal" font-weight="bold" text-decoration="none" x="331.421875" y="232">ReceiveInvoice</text></g></g><g transform="translate(2,-14) scale(1,1)"><path fill="#ffffff" stroke="none" d="M 80.8239715909091 251.04 C 80.8239715909091 245.495060608 85.28549426029092 241 90.7890625 241 C 96.29263073970908 241 100.7541534090909 245.495060608 100.7541534090909 251.04 C 100.7541534090909 256.58493939199997 96.29263073970908 261.08 90.7890625 261.08 C 85.28549426029092 261.08 80.8239715909091 256.58493939199997 80.8239715909091 251.04 Z"/></g><g transform="translate(2,-14) scale(1,1)"><path fill="none" stroke="#000000" d="M 80.8239715909091 251.04 C 80.8239715909091 245.495060608 85.28549426029092 241 90.7890625 241 C 96.29263073970908 241 100.7541534090909 245.495060608 100.7541534090909 251.04 C 100.7541534090909 256.58493939199997 96.29263073970908 261.08 90.7890625 261.08 C 85.28549426029092 261.08 80.8239715909091 256.58493939199997 80.8239715909091 251.04 Z" stroke-miterlimit="10"/></g><g transform="translate(2,-14) scale(1,1)"><path fill="none" stroke="#000000" d="M 90.7890625 261.08 L 90.7890625 280.92" stroke-miterlimit="10"/></g><g transform="translate(2,-14) scale(1,1)"><path fill="none" stroke="#000000" d="M 80.23778977272727 268.52 L 101.34033522727273 268.52" stroke-miterlimit="10"/></g><g transform="translate(2,-14) scale(1,1)"><path fill="none" stroke="#000000" d="M 90.7890625 280.92 L 76.13451704545454 301" stroke-miterlimit="10"/></g><g transform="translate(2,-14) scale(1,1)"><path fill="none" stroke="#000000" d="M 90.7890625 280.92 L 105.44360795454546 301" stroke-miterlimit="10"/></g><g transform="translate(2,-14) scale(1,1)"><g><path fill="none" stroke="none"/><text fill="#000000" stroke="none" font-family="Arial" font-size="13px" font-style="normal" font-weight="bold" text-decoration="none" x="55.013671875" y="321.5">BookKeeper</text></g></g><g transform="translate(2,-14) scale(1,1)"><path fill="none" stroke="#000000" d="M 142 159 L 287 175" stroke-miterlimit="10"/></g><g transform="translate(2,-14) scale(1,1)"><path fill="none" stroke="#000000" d="M 456 177 L 631 162" stroke-miterlimit="10"/></g><g transform="translate(2,-14) scale(1,1)"><path fill="none" stroke="#000000" d="M 142 168 L 302 207" stroke-miterlimit="10"/></g><g transform="translate(2,-14) scale(1,1)"><path fill="none" stroke="#000000" d="M 453 207 L 631 166" stroke-miterlimit="10"/></g><g transform="translate(2,-14) scale(1,1)"><path fill="#C0C0C0" stroke="none" d="M 303 282.5 C 303 271.7304464 342.17508 263 390.5 263 C 438.82492 263 478 271.7304464 478 282.5 C 478 293.2695536 438.82492 302 390.5 302 C 342.17508 302 303 293.2695536 303 282.5 Z" opacity="0.2"/></g><g transform="translate(2,-14) scale(1,1)"><path fill="#ffffff" stroke="none" d="M 296 275.5 C 296 264.7304464 335.17508 256 383.5 256 C 431.82492 256 471 264.7304464 471 275.5 C 471 286.2695536 431.82492 295 383.5 295 C 335.17508 295 296 286.2695536 296 275.5 Z"/></g><g transform="translate(2,-14) scale(1,1)"><path fill="none" stroke="#000000" d="M 296 275.5 C 296 264.7304464 335.17508 256 383.5 256 C 431.82492 256 471 264.7304464 471 275.5 C 471 286.2695536 431.82492 295 383.5 295 C 335.17508 295 296 286.2695536 296 275.5 Z" stroke-miterlimit="10"/></g><g transform="translate(2,-14) scale(1,1)"><g><path fill="none" stroke="none"/><text fill="#000000" stroke="none" font-family="Arial" font-size="13px" font-style="normal" font-weight="bold" text-decoration="none" x="330.271728515625" y="282.5">ReportTransaction</text></g></g><g transform="translate(2,-14) scale(1,1)"><path fill="none" stroke="#000000" d="M 142 178 L 333 255" stroke-miterlimit="10"/></g><g transform="translate(2,-14) scale(1,1)"><path fill="none" stroke="#000000" d="M 295 277 L 135 282" stroke-miterlimit="10"/></g><g transform="translate(2,-14) scale(1,1)"><path fill="#C0C0C0" stroke="none" d="M 295 328 C 295 318.6111584 335.0705104 311 384.5 311 C 433.9294896 311 474 318.6111584 474 328 C 474 337.3888416 433.9294896 345 384.5 345 C 335.0705104 345 295 337.3888416 295 328 Z" opacity="0.2"/></g><g transform="translate(2,-14) scale(1,1)"><path fill="#ffffff" stroke="none" d="M 288 321 C 288 311.6111584 328.0705104 304 377.5 304 C 426.9294896 304 467 311.6111584 467 321 C 467 330.3888416 426.9294896 338 377.5 338 C 328.0705104 338 288 330.3888416 288 321 Z"/></g><g transform="translate(2,-14) scale(1,1)"><path fill="none" stroke="#000000" d="M 288 321 C 288 311.6111584 328.0705104 304 377.5 304 C 426.9294896 304 467 311.6111584 467 321 C 467 330.3888416 426.9294896 338 377.5 338 C 328.0705104 338 288 330.3888416 288 321 Z" stroke-miterlimit="10"/></g><g transform="translate(2,-14) scale(1,1)"><g><path fill="none" stroke="none"/><text fill="#000000" stroke="none" font-family="Arial" font-size="13px" font-style="normal" font-weight="bold" text-decoration="none" x="322.82763671875" y="328">RecordTransaction</text></g></g><g transform="translate(2,-14) scale(1,1)"><path fill="none" stroke="#000000" d="M 287 309 L 135 289" stroke-miterlimit="10"/></g><g transform="translate(2,-14) scale(1,1)"><path fill="#C0C0C0" stroke="none" d="M 327 446.5 C 327 433.5213072 375.129384 423 434.5 423 C 493.870616 423 542 433.5213072 542 446.5 C 542 459.4786928 493.870616 470 434.5 470 C 375.129384 470 327 459.4786928 327 446.5 Z" opacity="0.2"/></g><g transform="translate(2,-14) scale(1,1)"><path fill="#ffffff" stroke="none" d="M 320 439.5 C 320 426.5213072 368.129384 416 427.5 416 C 486.870616 416 535 426.5213072 535 439.5 C 535 452.4786928 486.870616 463 427.5 463 C 368.129384 463 320 452.4786928 320 439.5 Z"/></g><g transform="translate(2,-14) scale(1,1)"><path fill="none" stroke="#000000" d="M 320 439.5 C 320 426.5213072 368.129384 416 427.5 416 C 486.870616 416 535 426.5213072 535 439.5 C 535 452.4786928 486.870616 463 427.5 463 C 368.129384 463 320 452.4786928 320 439.5 Z" stroke-miterlimit="10"/></g><g transform="translate(2,-14) scale(1,1)"><g><path fill="none" stroke="none"/><text fill="#000000" stroke="none" font-family="Arial" font-size="13px" font-style="normal" font-weight="bold" text-decoration="none" x="360.6591796875" y="446.5">CheckRecivedSupplies</text></g></g><g transform="translate(2,-14) scale(1,1)"><path fill="none" stroke="#000000" d="M 319 439 L 147 439" stroke-miterlimit="10"/></g><g transform="translate(2,-14) scale(1,1)"><path fill="#C0C0C0" stroke="none" d="M 311 504 C 311 494.6111584 364.5019664 487 430.5 487 C 496.4980336 487 550 494.6111584 550 504 C 550 513.3888416 496.4980336 521 430.5 521 C 364.5019664 521 311 513.3888416 311 504 Z" opacity="0.2"/></g><g transform="translate(2,-14) scale(1,1)"><path fill="#ffffff" stroke="none" d="M 304 497 C 304 487.6111584 357.5019664 480 423.5 480 C 489.4980336 480 543 487.6111584 543 497 C 543 506.3888416 489.4980336 514 423.5 514 C 357.5019664 514 304 506.3888416 304 497 Z"/></g><g transform="translate(2,-14) scale(1,1)"><path fill="none" stroke="#000000" d="M 304 497 C 304 487.6111584 357.5019664 480 423.5 480 C 489.4980336 480 543 487.6111584 543 497 C 543 506.3888416 489.4980336 514 423.5 514 C 357.5019664 514 304 506.3888416 304 497 Z" stroke-miterlimit="10"/></g><g transform="translate(2,-14) scale(1,1)"><g><path fill="none" stroke="none"/><text fill="#000000" stroke="none" font-family="Arial" font-size="13px" font-style="normal" font-weight="bold" text-decoration="none" x="375.8037109375" y="504">UpdateInventory</text></g></g><g transform="translate(2,-14) scale(1,1)"><path fill="none" stroke="#000000" d="M 322 479 L 147 448" stroke-miterlimit="10"/></g><g transform="translate(2,-14) scale(1,1)"><path fill="#ffffff" stroke="none" d="M 656.2384518821023 345.68 C 656.2384518821023 340.886167936 660.1242942070477 337 664.917724609375 337 C 669.7111550117023 337 673.5969973366477 340.886167936 673.5969973366477 345.68 C 673.5969973366477 350.473832064 669.7111550117023 354.36 664.917724609375 354.36 C 660.1242942070477 354.36 656.2384518821023 350.473832064 656.2384518821023 345.68 Z"/></g><g transform="translate(2,-14) scale(1,1)"><path fill="none" stroke="#000000" d="M 656.2384518821023 345.68 C 656.2384518821023 340.886167936 660.1242942070477 337 664.917724609375 337 C 669.7111550117023 337 673.5969973366477 340.886167936 673.5969973366477 345.68 C 673.5969973366477 350.473832064 669.7111550117023 354.36 664.917724609375 354.36 C 660.1242942070477 354.36 656.2384518821023 350.473832064 656.2384518821023 345.68 Z" stroke-miterlimit="10"/></g><g transform="translate(2,-14) scale(1,1)"><path fill="none" stroke="#000000" d="M 664.917724609375 354.36 L 664.917724609375 371.64" stroke-miterlimit="10"/></g><g transform="translate(2,-14) scale(1,1)"><path fill="none" stroke="#000000" d="M 655.7279064275568 360.84 L 674.1075427911932 360.84" stroke-miterlimit="10"/></g><g transform="translate(2,-14) scale(1,1)"><path fill="none" stroke="#000000" d="M 664.917724609375 371.64 L 652.1540882457386 389" stroke-miterlimit="10"/></g><g transform="translate(2,-14) scale(1,1)"><path fill="none" stroke="#000000" d="M 664.917724609375 371.64 L 677.6813609730114 389" stroke-miterlimit="10"/></g><g transform="translate(2,-14) scale(1,1)"><g><path fill="none" stroke="none"/><text fill="#000000" stroke="none" font-family="Arial" font-size="13px" font-style="normal" font-weight="bold" text-decoration="none" x="624.083251953125" y="409.5">SupplierAgent</text></g></g><g transform="translate(2,-14) scale(1,1)"><path fill="none" stroke="#000000" d="M 615 376 L 539 377" stroke-miterlimit="10"/></g></g></svg>